<?xml version="1.0" encoding="UTF-8" standalone="no"?>
<svg
   xmlns:dc="http://purl.org/dc/elements/1.1/"
   xmlns:cc="http://creativecommons.org/ns#"
   xmlns:rdf="http://www.w3.org/1999/02/22-rdf-syntax-ns#"
   xmlns:svg="http://www.w3.org/2000/svg"
   xmlns="http://www.w3.org/2000/svg"
   xmlns:sodipodi="http://sodipodi.sourceforge.net/DTD/sodipodi-0.dtd"
   xmlns:inkscape="http://www.inkscape.org/namespaces/inkscape"
   version="1.1"
   id="svg869"
   width="2319.8242"
   height="2114.8525"
   viewBox="0 0 2319.8241 2114.8525"
   sodipodi:docname="cornLogo.svg"
   inkscape:version="1.0.1 (1.0.1+r73)">
  <metadata
     id="metadata233">
    <rdf:RDF>
      <cc:Work
         rdf:about="">
        <dc:format>image/svg+xml</dc:format>
        <dc:type
           rdf:resource="http://purl.org/dc/dcmitype/StillImage" />
      </cc:Work>
    </rdf:RDF>
  </metadata>
  <defs
     id="defs873" />
  <sodipodi:namedview
     pagecolor="#ffffff"
     bordercolor="#666666"
     borderopacity="1"
     objecttolerance="10"
     gridtolerance="10"
     guidetolerance="10"
     inkscape:pageopacity="0"
     inkscape:pageshadow="2"
     inkscape:window-width="1688"
     inkscape:window-height="1404"
     id="namedview871"
     showgrid="false"
     inkscape:zoom="0.34103623"
     inkscape:cx="1030.4678"
     inkscape:cy="687.83377"
     inkscape:window-x="64"
     inkscape:window-y="720"
     inkscape:window-maximized="0"
     inkscape:current-layer="g875"
     inkscape:document-rotation="0" />
  <g
     inkscape:groupmode="layer"
     inkscape:label="Image"
     id="g875"
     transform="translate(-210.21519,118.15377)">
    <path
       style="opacity:0.99;fill:#ffff00;fill-rule:evenodd;stroke:#000000;stroke-width:1.00157;stroke-linejoin:round;stroke-miterlimit:4;stroke-dasharray:none;paint-order:fill markers stroke"
       d=""
       id="path3865" />
    <path
       style="fill:#f1fa8c;fill-opacity:1;stroke:#bd93f9;stroke-width:30;stroke-linecap:butt;stroke-linejoin:miter;stroke-opacity:1;stroke-miterlimit:4;stroke-dasharray:none"
       d="M 1798.0301,821.31051 C 2190.4739,53.031217 2041.8414,-82.969093 2041.8414,-82.969093 1669.7356,-44.184033 1317.833,678.33964 1317.833,678.33964 c 0,0 -154.4349,436.07906 -11.7326,578.94766 0,0 246.1408,-57.3454 491.9297,-435.97679 z"
       id="path1783"
       sodipodi:nodetypes="ccccc" />
    <path
       id="path923"
       style="fill:none;stroke:#bd93f9;stroke-width:50.049;stroke-linecap:butt;stroke-linejoin:miter;stroke-miterlimit:4;stroke-dasharray:none;stroke-opacity:1"
       d="m 2275.1323,716.73447 c 0,0 71.6407,-30.65561 109.3813,-29.45764 28.3364,0.89945 80.5579,27.28145 80.5579,27.28145 0,0 -63.6379,14.55078 -96.0263,14.8631 -31.5871,0.30456 -93.9129,-12.68691 -93.9129,-12.68691 z m -362.7326,67.98611 c 0,0 76.4682,-72.97723 124.8884,-89.90847 42.1451,-14.73697 89.4005,-11.39375 133.7824,-6.53401 35.7472,3.9143 104.0618,28.45637 104.0618,28.45637 0,0 -71.0171,40.05117 -109.637,52.14141 -41.2494,12.91348 -84.8108,18.40162 -127.9546,21.02561 -41.6724,2.53446 -125.141,-5.18091 -125.141,-5.18091 z M 1195.0306,113.96992 c 0,0 -11.7065,-64.562763 -33.408,-86.628163 -27.0187,-27.47177 -107.1472,-43.38099 -107.1472,-43.38099 0,0 32.3687,59.03692 56.7113,81.43376 23.7694,21.86953 83.8439,48.575393 83.8439,48.575393 z m 111.8651,381.34275 c 0,0 25.6981,-100.16879 22.0205,-150.85262 -2.2974,-31.66108 -14.9657,-61.97578 -27.2158,-91.26126 -12.1672,-29.08766 -26.1209,-58.0698 -45.5592,-82.89501 -17.0801,-21.81345 -61.1106,-56.33386 -61.1106,-56.33386 0,0 -7.2944,93.4382 -5.234,140.13799 1.3597,30.82028 2.6403,62.29795 11.586,91.82279 7.2678,23.98706 19.4318,46.5871 33.5749,67.27951 9.0843,13.29107 21.8014,23.69777 32.4317,35.78791 13.399,15.23885 39.5065,46.31455 39.5065,46.31455 z m 488.4723,324.97334 c -21.8282,33.7709 -46.5839,74.8412 -88.0987,122.3427 -41.5149,47.50132 -85.4391,99.62909 -129.407,136.99979 -43.9682,37.3706 -77.1577,68.2002 -122.2354,95.8136 -45.0776,27.6133 -138.2887,103.7763 -160.3234,71.5528 -22.0346,-32.2235 -33.4937,-69.8429 -40.8676,-193.5198 -3.6025,-85.08487 26.6725,-196.26719 43.3682,-256.3296 16.6956,-60.06264 14.6225,-88.09367 18.1788,-149.25061 3.5563,-61.15698 -9.0872,-152.58222 -9.0872,-152.58222 0,0 -31.3301,97.81692 -46.1498,139.39108 -14.8199,41.57418 -29.2668,67.05445 -42.1293,110.20958 -12.8625,43.15503 -25.5824,104.82178 -32.354,148.72098 -6.7717,43.8992 -11.9719,73.0668 -10.4889,113.82879 1.4832,40.762 4.5188,85.3336 21.3741,128.6598 17.1914,44.1896 95.0035,188.1608 95.0035,188.1608 l 78.9629,-28.3337 c 41.9693,-23.1695 102.7816,-61.2946 136.3263,-84.116 37.3897,-25.4372 78.706,-62.8192 110.9407,-94.5363 34.4016,-33.8491 89.7058,-82.8204 121.4962,-119.13317 30.5592,-34.90642 39.392,-55.36332 69.3521,-89.81062 38.0303,-43.7265 103.1702,-123.63333 103.1702,-123.63333 0,0 -64.4001,2.03706 -117.0317,35.56543 m -457.1586,487.15049 -42.9059,-60.4416 m 1087.526,126.2205 -150.8844,2.6845 c 0,0 51.387,36.0618 80.6464,34.8486 26.523,-1.0998 70.238,-37.5331 70.238,-37.5331 z m -509.6696,-289.1823 c 0,0 7.4342,92.091 27.8284,132.2643 19.9851,39.3673 53.528,71.6094 88.5367,98.509 32.1209,24.6805 69.0858,44.8891 108.2557,55.2136 43.286,11.4093 134.1644,5.8799 134.1644,5.8799 0,0 -18.6126,-76.9954 -37.6293,-111.1926 -19.2831,-34.6757 -44.9176,-66.8021 -75.6477,-91.8999 -34.0962,-27.8468 -75.2737,-46.915 -116.6767,-61.8746 -41.2595,-14.9077 -128.8315,-26.8997 -128.8315,-26.8997 z M 1771.2456,960.13651 c 26.8098,-12.957 58.8932,26.24992 77.1696,48.90639 17.3219,21.4732 24.7447,74.9902 24.7447,74.9902 0,0 -61.2299,-26.4117 -94.093,-29.7522 -33.7027,-3.4257 -62.6432,-14.5436 -55.1992,-37.0071 M 538.05332,535.98216 355.69349,607.13359 c 0,0 30.05563,-57.55069 51.86944,-73.3474 21.81382,-15.79672 51.13742,-19.2472 74.21745,-15.922 23.08007,3.3251 56.27294,18.11797 56.27294,18.11797 z m 549.18388,198.60839 c 0,0 -71.6723,-106.62185 -123.08308,-142.72865 -46.74647,-32.8311 -104.55929,-47.70439 -160.05776,-61.23355 -45.5796,-11.11108 -92.95059,-17.10379 -139.8481,-15.84634 -42.63911,1.14328 -126.19494,21.20015 -126.19494,21.20015 0,0 92.16431,117.91303 151.42815,162.1523 43.16585,32.22239 92.60555,58.05553 144.59199,72.16132 47.7737,12.9628 99.39546,18.3947 148.16986,9.94404 37.60258,-6.51492 104.99388,-45.64927 104.99388,-45.64927 z m 107.255,108.74316 c 11.4782,-36.67086 19.0731,-88.98928 19.0731,-88.98928 -0.6026,-17.57773 -34.4778,-14.21812 -52.6973,-17.44929 -24.1783,-4.28807 -73.6308,-2.30459 -73.6308,-2.30459 0,0 32.729,54.47541 55.6327,75.91516 14.8873,13.9358 46.4675,49.2964 51.6223,32.828 z m 599.664,213.14119 c -19.4259,31.1152 -71.2565,93.3133 -105.5608,134.241 M 1142.8699,810.50571 c -13.481,31.6674 -46.2707,100.9335 -54.3347,133.0043 -8.064,32.07072 -5.9671,51.25282 -2.145,82.43049 m 241.0489,357.6813 c 0,0 -34.3888,-52.3775 -49.9655,-86.4044 m 699.2703,501.7239 c 0,0 5.7565,79.1357 33.1378,102.2363 41.1936,34.7536 160.0072,23.2439 160.0072,23.2439 0,0 -75.3354,-36.6407 -110.1923,-59.652 -29.459,-19.4478 -82.9527,-65.8282 -82.9527,-65.8282 z M 1788.6247,1350.8 c 0,0 -28.1558,118.5144 -25.5641,169.6958 2.5917,51.1814 24.8096,98.4261 46.1453,134.9371 21.3356,36.5109 42.5622,53.6839 72.6781,78.2056 30.1161,24.5216 94.8599,65.3028 94.8599,65.3028 0,0 35.5111,-81.2325 40.3851,-121.7776 4.8742,-40.5449 0.3151,-81.7342 -9.4365,-116.3397 -9.7516,-34.6056 -21.2299,-58.4393 -44.6939,-88.3344 -23.4641,-29.8951 -68.1965,-64.2591 -97.9901,-83.9358 -29.7936,-19.6767 -76.3838,-37.7538 -76.3838,-37.7538 z m -100.0293,-160.0841 c -25.9034,3.621 -66.8208,34.1963 -64.1814,64.3844 2.6491,30.2966 48.4269,37.0517 74.6487,52.4571 28.5836,16.7931 89.562,43.2426 89.562,43.2426 0,0 -5.0097,-51.566 -13.5514,-75.7545 -4.4447,-12.5868 -7.4916,-18.527 -19.2658,-35.1066 -14.7915,-20.8283 -44.9021,-52.3417 -67.2121,-49.223 z M 445.80327,1038.756 c 0,0 -88.39955,29.8247 -115.7742,64.4963 -29.39412,37.2294 -34.78297,89.7033 -38.5234,136.9902 -2.5283,31.9631 11.15781,95.5396 11.15781,95.5396 0,0 26.64538,-83.9743 48.46529,-121.8505 14.91907,-25.8973 40.79187,-44.4138 55.44927,-70.4601 18.27985,-32.4835 39.22523,-104.7155 39.22523,-104.7155 z m 450.51818,0.208 c 0,0 -71.51031,-59.21207 -112.49607,-80.22059 -30.19733,-15.4786 -62.79416,-27.9189 -96.3772,-32.7815 -33.67125,-4.8751 -69.28301,-5.2782 -101.98427,4.1105 -24.89468,7.1475 -46.77624,22.9623 -67.4734,38.53332 -26.8122,20.1716 -72.18724,70.15027 -72.18724,70.15027 0,0 93.0218,39.8569 141.97413,51.7021 42.14229,10.1974 85.72249,17.9024 129.0511,16.2926 34.48306,-1.2811 69.31451,-8.006 101.46005,-20.5514 28.32459,-11.0542 78.0329,-47.2353 78.0329,-47.2353 z m 210.27065,68.1696 c 12.7472,-13.6032 16.3947,-39.3097 7.107,-55.4736 -21.6355,-37.6534 -76.5571,-50.1706 -119.97938,-50.7712 -34.8554,-0.482 -97.39827,38.0752 -97.39827,38.0752 0,0 31.63767,51.8305 56.45147,67.4434 19.8789,12.5078 44.8036,16.7181 68.28058,17.3871 29.037,0.8273 65.6759,4.5357 85.5386,-16.6609 z m -132.95658,11.1735 c -11.6175,35.7151 -12.2137,71.6818 -16.658,117.1265 -4.4443,45.4447 -8.9372,104.6652 -14.899,145.8403 -5.9617,41.1753 -1.73,60.5234 7.3193,97.3604 9.0493,36.837 20.485,70.0698 41.3491,94.2776 20.86408,24.2077 23.80738,34.3988 38.45388,51.6571 14.6464,17.2582 23.2238,25.6306 29.6683,45.375 6.4444,19.7446 13.5241,49.9665 22.7565,68.7968 9.2322,18.8303 22.5127,34.7313 47.4015,41.9977 24.8889,7.2661 61.4541,5.8478 89.24,-11.9159 27.7858,-17.7637 38.6338,-46.8699 50.2128,-77.1596 11.579,-30.2897 17.7438,-70.6975 20.49,-102.0771 2.7464,-31.3797 2.3426,-57.8803 -2.9805,-90.4627 -5.3231,-32.5823 -11.4635,-71.8577 -28.6198,-103.7081 -17.1563,-31.8505 -49.5738,-65.0269 -73.7703,-98.6827 -24.1963,-33.656 -43.7978,-178.2436 -64.1213,-213.0661 m 132.8617,303.4643 c 0,0 96.9658,-4.0584 133.4689,-11.5246 36.5032,-7.4664 50.9271,-13.8641 76.1077,-25.3748 25.1806,-11.5106 76.6349,-49.2881 105.4689,-64.4121 28.8341,-15.1238 59.642,-47.7822 59.642,-47.7822 m 48.7393,59.5792 c 0,0 -26.5369,58.5124 -42.8245,83.8243 -16.2876,25.3121 -49.3209,66.1161 -74.2691,92.7586 -24.9481,26.6424 -38.8081,36.4133 -73.9182,67.6036 -35.1099,31.1903 -73.0233,72.4893 -107.5304,91.2841 -34.5072,18.7949 -79.3607,53.4969 -108.7444,58.5763"
       sodipodi:nodetypes="cscsccsscssccscsccssscssssccsssscsscsssssccssssccccccsccssscsssccscscccssccssscssscscscsscccsccccscsccssscsssscssscssscsscssccsssscssscssscssscssssssssssssssccsssccssssc" />
    <path
       style="fill:#50fa7b;fill-opacity:1;stroke:none;stroke-width:0.377953;stroke-miterlimit:4;stroke-dasharray:none"
       d="m 298.79294,1298.7517 c -4.9155,-30.3334 -4.96468,-67.7955 -0.13135,-100.05 9.09938,-60.7231 24.9684,-92.0717 57.94342,-114.4646 11.86729,-8.0589 56.83707,-30.4496 75.60771,-37.6455 l 8.85121,-3.3932 -1.36413,5.7008 c -0.75027,3.1354 -5.29472,16.8972 -10.09877,30.5817 -19.05352,54.2745 -26.95614,68.7425 -53.7948,98.4868 -8.7463,9.6932 -19.33503,22.7556 -23.53052,29.0277 -8.80032,13.156 -24.69339,49.3311 -38.70543,88.0995 -5.35412,14.8138 -9.98077,27.1801 -10.28144,27.4808 -0.30067,0.3006 -2.32382,-10.4201 -4.4959,-23.824 z"
       id="path1717" />
    <path
       style="fill:#50fa7b;fill-opacity:1;stroke:none;stroke-width:0.78365;stroke-miterlimit:4;stroke-dasharray:none"
       d="m 650.39954,1099.8952 c -52.06,-7.9896 -91.50405,-19.3492 -159.05608,-45.8072 -34.23441,-13.4085 -39.5754,-16.0876 -37.98737,-19.0549 4.0811,-7.6256 60.50974,-60.06007 77.90573,-72.39139 34.85835,-24.7096 59.20089,-33.9536 96.62774,-36.6941 59.36713,-4.347 124.78657,14.6109 183.3245,53.12562 30.69975,20.1988 79.78015,58.17017 78.29488,60.57337 -1.58099,2.5581 -37.43235,25.7 -54.58972,35.2374 -18.02382,10.0191 -47.6625,19.4902 -76.39021,24.4106 -28.48668,4.8791 -78.44284,5.1566 -108.12947,0.6006 z"
       id="path1741" />
    <path
       style="fill:#50fa7b;fill-opacity:1;stroke:none;stroke-width:0.78365;stroke-miterlimit:4;stroke-dasharray:none"
       d="m 1007.0255,1120.0152 c -32.81798,-3.5137 -51.21418,-12.0193 -70.58848,-32.6369 -11.6352,-12.3818 -35.15527,-43.8292 -35.15527,-47.0041 0,-2.0754 34.15327,-19.5243 53.90857,-27.5419 19.4416,-7.8903 20.0339,-7.9904 45.61488,-7.7077 41.5529,0.4591 74.6048,11.4091 96.2615,31.8911 14.1332,13.3666 18.4009,22.1755 18.1831,37.532 -0.282,19.8915 -9.2101,32.9436 -28.3154,41.3948 -8.4835,3.7526 -14.8587,4.6299 -37.2955,5.132 -14.8846,0.3331 -34.0606,-0.1436 -42.6134,-1.0593 z"
       id="path1743" />
    <path
       style="fill:#50fa7b;fill-opacity:1;stroke:none;stroke-width:0.78365;stroke-miterlimit:4;stroke-dasharray:none"
       d="m 1128.9438,1777.4536 c -29.7722,-9.8366 -42.0526,-26.6403 -58.7136,-80.3399 -12.5044,-40.3025 -14.5253,-44.58 -30.2914,-64.115 -7.3266,-9.0781 -19.1435,-24.7007 -26.2598,-34.717 -7.1163,-10.0163 -17.13558,-23.3641 -22.26518,-29.6618 -16.959,-20.8212 -28.1292,-47.0394 -39.6037,-92.9563 -9.7988,-39.2117 -10.8778,-61.6384 -5.1952,-107.9792 2.3773,-19.3864 7.6345,-71.6362 11.6825,-116.1108 9.1897,-100.9632 14.327,-133.3713 20.7513,-130.906 8.9267,3.4255 31.99048,5.7015 60.67388,5.9874 25.7616,0.2569 35.1384,-0.4348 44.623,-3.2916 13.734,-4.1367 26.1902,-14.254 31.6093,-25.674 l 3.612,-7.6117 3.8961,9.919 c 2.1429,5.4554 11.3698,40.3924 20.5042,77.6378 17.6477,71.9582 24.2062,94.5947 32.236,111.2604 2.7472,5.7019 15.8386,23.896 29.092,40.4315 44.5699,55.6072 53.6316,70.3548 63.74,103.7346 28.5867,94.3988 21.8079,211.7979 -16.6975,289.1759 -14.5208,29.1802 -29.0539,43.3889 -54.3405,53.1278 -16.7249,6.4413 -52.5958,7.5265 -69.0534,2.0889 z"
       id="path1745" />
    <path
       style="fill:#50fa7b;fill-opacity:1;stroke:none;stroke-width:0.78365;stroke-miterlimit:4;stroke-dasharray:none"
       d="m 1275.3769,1681.2871 c 11.6999,-39.9682 18.6855,-96.2727 17.1709,-138.3998 -1.6875,-46.9365 -13.0925,-104.6493 -27.0686,-136.9759 l -7.1147,-16.4562 h 4.7901 c 2.6346,0 19.0932,-0.9705 36.5746,-2.1565 74.2415,-5.0372 110.4649,-11.7545 146.8585,-27.2338 23.0378,-9.7987 28.1018,-12.6489 69.613,-39.1809 17.1902,-10.9872 38.1834,-23.9833 46.6516,-28.8802 19.9309,-11.5256 33.5704,-21.3582 46.7723,-33.7179 l 10.6414,-9.9626 1.4709,7.8454 c 0.8089,4.3149 3.0107,10.4532 4.8929,13.6406 4.1103,6.9607 20.1419,18.1041 35.0137,24.3375 l 10.8253,4.5374 -19.4862,38.6469 c -21.0525,41.7533 -31.6089,57.7369 -64.5518,97.739 -28.2609,34.3167 -47.0092,53.4123 -86.8979,88.5077 -18.2459,16.0534 -43.9043,39.2361 -57.0186,51.5172 -28.8259,26.9945 -49.0394,43.3524 -66.6421,53.9305 -7.2512,4.3576 -26.6507,16.2701 -43.1098,26.4723 -29.8867,18.5251 -52.5659,30.4498 -57.9175,30.4529 -1.9611,0 -2.4131,-1.4349 -1.468,-4.6636 z"
       id="path1747" />
    <path
       style="fill:#50fa7b;fill-opacity:1;stroke:none;stroke-width:0.78365;stroke-miterlimit:4;stroke-dasharray:none"
       d="m 1776.2593,1342.1968 c -3.9913,-1.7505 -26.8506,-12.7454 -50.7984,-24.433 -23.9479,-11.6876 -52.4054,-25.3848 -63.2389,-30.4381 -26.0736,-12.162 -35.2479,-21.6021 -35.2479,-36.2691 0,-15.3801 20.4942,-39.6004 42.7999,-50.5814 23.3509,-11.4956 35.3891,-8.2269 61.483,16.6945 30.4994,29.1289 42.9056,53.9095 50.1474,100.1664 4.4177,28.2175 4.2589,28.9851 -5.1451,24.8607 z"
       id="path1749" />
    <path
       style="fill:#50fa7b;fill-opacity:1;stroke:none;stroke-width:0.78365;stroke-miterlimit:4;stroke-dasharray:none"
       d="m 1954.8134,1781.2647 c -48.6476,-31.4601 -96.3025,-68.455 -115.5077,-89.6697 -26.8042,-29.6086 -55.3822,-85.3656 -67.6318,-131.9529 -6.0166,-22.882 -6.4131,-68.4344 -0.8947,-102.8012 4.8441,-30.168 18.022,-96.7618 19.7979,-100.0474 1.0098,-1.8683 11.2736,2.3245 36.5662,14.9374 73.3299,36.5682 135.3345,93.0533 161.7067,147.3122 18.2464,37.5404 26.6532,77.7297 26.4569,126.4778 -0.117,29.0445 -0.815,35.7198 -5.6062,53.6198 -5.8707,21.9331 -28.9379,85.8249 -32.983,91.3569 -2.1667,2.9632 -4.6894,1.8998 -21.9043,-9.2329 z"
       id="path1751" />
    <path
       style="fill:#50fa7b;fill-opacity:1;stroke:none;stroke-width:0.78365;stroke-miterlimit:4;stroke-dasharray:none"
       d="m 2100.5565,1922.0181 c -40.1964,-1.8668 -67.08,-8.422 -85.24,-20.7846 -14.6257,-9.9566 -28.8891,-44.8987 -32.9387,-80.6922 -1.7318,-15.3074 -3.9233,-16.0771 27.2746,9.5797 41.0711,33.7764 59.4649,45.6997 113.728,73.7208 l 35.0733,18.1116 -14.5303,0.702 c -7.9916,0.3861 -27.5068,0.099 -43.3669,-0.6373 z"
       id="path1753" />
    <path
       style="fill:#50fa7b;fill-opacity:1;stroke:none;stroke-width:0.78365;stroke-miterlimit:4;stroke-dasharray:none"
       d="m 1315.9631,1360.2409 c -6.2721,-10.5347 -13.4335,-22.5277 -15.9142,-26.6511 l -4.5104,-7.497 37.6383,-13.4154 c 40.388,-14.3956 58.8688,-23.9947 120.6106,-62.6467 80.9977,-50.7069 95.6073,-62.6204 205.733,-167.7674 l 60.0618,-57.3464 2.5512,7.0552 c 4.2234,11.6796 25.762,21.4659 54.6443,24.828 6.5571,0.7633 11.9221,1.9244 11.9221,2.5803 0,5.2728 -100.2319,128.9543 -104.505,128.9543 -1.5153,0 -9.372,3.3104 -17.4594,7.3563 -16.179,8.0941 -30.1436,20.4562 -39.1115,34.6233 -8.0274,12.6815 -34.2054,35.5967 -56.055,49.0686 -10.0105,6.1722 -35.8535,22.3999 -57.4291,36.0617 -69.6966,44.1323 -105.7407,57.327 -171.2225,62.6794 l -15.5505,1.271 z"
       id="path1755" />
    <path
       style="fill:#50fa7b;fill-opacity:1;stroke:none;stroke-width:0.78365;stroke-miterlimit:4;stroke-dasharray:none"
       d="m 1247.8798,1374.423 c -3.3441,-4.8466 -18.3949,-24.2071 -33.446,-43.0232 -15.0512,-18.8162 -29.9912,-39.3588 -33.2001,-45.6503 -8.092,-15.8655 -14.4144,-37.5935 -30.0928,-103.4179 -7.4411,-31.2409 -16.8496,-66.2296 -20.9077,-77.7528 -4.0582,-11.5231 -8.1123,-27.264 -9.0092,-34.9797 -1.8963,-16.3134 -9.5044,-29.2104 -24.0537,-40.7747 l -8.9514,-7.115 -1.457,-19.4339 c -2.3438,-31.26157 1.1527,-52.41419 14.3844,-87.02139 6.0646,-15.8619 40.2896,-95.7742 41.8613,-97.7425 0.3162,-0.396 8.7509,6.4279 18.7437,15.1642 9.9929,8.7364 20.6617,16.3828 23.7085,16.9922 l 5.5396,1.1079 -2.832,14.829 c -20.1701,105.61252 -19.7455,187.58389 1.3284,256.44399 8.8966,29.0699 88.5412,187.8026 118.7627,236.6952 l 13.4807,21.8093 -23.1038,1.3313 c -44.2222,2.5483 -43.8065,2.6095 -50.7556,-7.4617 z"
       id="path1757" />
    <path
       style="fill:#50fa7b;fill-opacity:1;stroke:none;stroke-width:0.78365;stroke-miterlimit:4;stroke-dasharray:none"
       d="m 1180.7704,840.42571 c -24.975,-16.4705 -63.6853,-61.44294 -87.6591,-101.83994 -1.4813,-2.49596 2.8391,-2.71938 29.1753,-1.50878 17.0027,0.78158 41.9763,2.74487 55.4968,4.36287 30.1381,3.60661 33.4586,5.7242 31.5489,20.11995 -1.1514,8.6795 -14.3073,69.8289 -16.988,78.961 -1.3496,4.5977 -4.4971,4.5719 -11.5739,-0.095 z"
       id="path1759" />
    <path
       style="fill:#50fa7b;fill-opacity:1;stroke:none;stroke-width:0.78365;stroke-miterlimit:4;stroke-dasharray:none"
       d="M 900.80126,779.64038 C 828.48284,772.66511 754.34155,742.86488 691.9017,695.67567 670.64875,679.61366 621.35376,630.54099 591.11188,595.34043 c -31.70937,-36.90868 -47.02555,-56.10365 -45.76912,-57.36007 1.49453,-1.49453 29.68624,-7.45945 62.55195,-13.235 69.22219,-12.16453 128.26139,-8.3732 215.37325,13.83065 61.43964,15.6603 100.86165,30.98673 133.72886,51.99091 24.973,15.95923 73.78738,69.73725 112.31728,123.73791 15.5927,21.85356 17.5706,18.42864 -21.8572,37.84829 -53.53068,26.36586 -89.12158,33.03655 -146.65564,27.48726 z"
       id="path1761" />
    <path
       style="fill:#50fa7b;fill-opacity:1;stroke:none;stroke-width:0.78365;stroke-miterlimit:4;stroke-dasharray:none"
       d="m 364.26943,597.8723 c 0,-2.48964 23.15578,-37.51175 32.76465,-49.5551 16.37773,-20.52716 48.98885,-31.45376 81.76457,-27.39585 12.27634,1.51992 41.34422,9.85491 48.43986,13.88975 2.05702,1.1697 -156.50548,64.67614 -161.48298,64.67614 -0.81736,0 -1.4861,-0.72672 -1.4861,-1.61494 z"
       id="path1763" />
    <path
       style="fill:#50fa7b;fill-opacity:1;stroke:none;stroke-width:0.78365;stroke-miterlimit:4;stroke-dasharray:none"
       d="m 1162.0167,94.060667 c -35.1102,-18.54582 -47.0674,-27.45282 -62.3624,-46.45387 -10.8245,-13.44729 -38.7203,-55.56948 -38.7203,-58.46695 0,-0.50265 5.365,0.44348 11.9221,2.10249 40.5529,10.26024 76.8364,26.90577 88.5964,40.64467 3.9326,4.5944 9.9846,15.16186 13.4488,23.48324 6.9375,16.66451 17.1758,52.739223 14.9527,52.685913 -0.773,-0.0185 -13.2998,-6.31651 -27.8373,-13.995493 z"
       id="path1765" />
    <path
       style="fill:#50fa7b;fill-opacity:1;stroke:none;stroke-width:0.78365;stroke-miterlimit:4;stroke-dasharray:none"
       d="m 1289.9184,470.56076 c -7.9127,-9.41712 -22.0599,-25.24781 -31.4382,-35.17932 -33.527,-35.5046 -53.5333,-74.90215 -60.8488,-119.82639 -4.5,-27.63417 -6.2139,-82.02601 -4.0782,-129.42268 1.1891,-26.38796 2.6879,-51.9731 3.3307,-56.85588 l 1.1688,-8.87777 8.5931,6.80437 c 4.7262,3.7424 16.8253,14.63769 26.8869,24.21175 29.1634,27.75035 47.9757,58.97045 72.4862,120.29485 19.5367,48.88013 23.4205,76.29215 17.3576,122.51029 -3.6921,28.14546 -14.8021,85.83414 -17.4372,90.54277 -1.2034,2.15041 -5.4259,-1.59267 -16.0209,-14.20199 z"
       id="path1767" />
    <path
       style="fill:#50fa7b;fill-opacity:1;stroke:none;stroke-width:0.78365;stroke-miterlimit:4;stroke-dasharray:none"
       d="m 1268.0427,1272.7413 c -39.2102,-74.3901 -65.5763,-129.165 -72.4564,-150.5262 -3.4487,-10.7074 -8.175,-30.3011 -10.503,-43.5416 -5.4553,-31.0269 -7.6002,-98.85307 -4.0474,-127.99119 4.4212,-36.2612 14.6125,-96.4223 20.852,-123.0929 3.3383,-14.2698 7.595,-33.39687 9.4592,-42.50468 5.5802,-27.26202 16.8031,-61.59942 33.4827,-102.4429 8.6645,-21.21699 25.7674,-68.4334 38.0063,-104.92536 16.3214,-48.6644 22.5725,-64.9674 23.4529,-61.1655 1.7839,7.70418 5.2529,49.03837 6.7864,80.86286 1.5739,32.66132 -2.1844,113.7739 -6.7247,145.13602 -1.7333,11.97258 -6.3574,33.89885 -10.2757,48.72506 -44.4463,168.1761 -51.0876,226.34449 -38.3523,335.90909 8.8069,75.7678 15.5865,94.3819 53.8872,147.9533 11.7117,16.3812 20.5146,30.4829 19.5621,31.337 -0.9525,0.8541 -9.8392,4.4411 -19.7483,7.971 l -18.0164,6.4179 z"
       id="path1769" />
    <path
       style="fill:#50fa7b;fill-opacity:1;stroke:none;stroke-width:0.78365;stroke-miterlimit:4;stroke-dasharray:none"
       d="m 1322.7424,1280.6385 -16.642,-23.3512 12.5239,-1.1356 c 18.3295,-1.662 46.2227,-16.6963 112.4128,-60.59 114.7298,-76.0824 182.6414,-137.7733 285.3733,-259.23299 20.3519,-24.0621 46.3901,-59.7826 66.0712,-90.6401 l 15.5485,-24.3781 16.5873,-8.1252 c 9.1229,-4.4688 24.169,-10.47472 33.4357,-13.34646 17.9739,-5.57008 51.4003,-12.42061 54.905,-11.2524 1.78,0.59335 -60.3301,76.98896 -96.5866,118.80166 -5.933,6.8423 -23.2024,29.1483 -38.3765,49.569 -30.1997,40.64182 -54.7335,66.50489 -138.65,146.16239 -85.6922,81.3432 -114.4934,103.4479 -209.3214,160.6522 -42.8252,25.834 -50.7183,30.0412 -66.3088,35.3439 l -14.3303,4.874 z"
       id="path1771" />
    <path
       style="fill:#50fa7b;fill-opacity:1;stroke:none;stroke-width:0.78365;stroke-miterlimit:4;stroke-dasharray:none"
       d="m 1962.8659,785.75576 c -18.8161,-0.98561 -35.9919,-2.53533 -38.1682,-3.44381 -3.4089,-1.42295 -1.5418,-3.74395 13.4771,-16.75353 42.8204,-37.09164 79.6568,-61.35283 105.594,-69.54639 37.9564,-11.99043 107.4824,-11.55637 156.8189,0.97903 23.6691,6.01383 64.9956,19.07838 64.9956,20.54706 0,1.95994 -50.3962,27.70035 -74.6426,38.12457 -37.1591,15.97569 -81.1582,25.5376 -139.5496,30.32697 -29.346,2.40701 -38.5735,2.38263 -88.5252,-0.2339 z"
       id="path1773" />
    <path
       style="fill:#50fa7b;fill-opacity:1;stroke:none;stroke-width:0.78365;stroke-miterlimit:4;stroke-dasharray:none"
       d="m 2318.4585,721.6699 c -14.8231,-2.30959 -27.6836,-4.93177 -28.5789,-5.82707 -1.9757,-1.97578 36.3741,-15.20374 60.7134,-20.94176 20.8147,-4.90713 38.2304,-5.27224 53.8031,-1.12797 17.2165,4.58173 50.2495,18.13978 48.3974,19.86419 -3.7961,3.53431 -53.1726,10.62591 -79.3931,11.40266 -21.1931,0.62782 -34.5362,-0.19062 -54.9419,-3.37005 z"
       id="path1775" />
    <path
       style="fill:#50fa7b;fill-opacity:1;stroke:none;stroke-width:0.78365;stroke-miterlimit:4;stroke-dasharray:none"
       d="m 2136.7884,1372.8955 c -25.6353,-2.0035 -41.302,-5.6404 -67.1958,-15.5993 -62.2915,-23.9576 -134.7801,-85.1007 -163.441,-137.8604 -4.0267,-7.4124 -9.6492,-21.5431 -12.4944,-31.4014 -4.623,-16.0181 -13.544,-65.0481 -16.6445,-91.4785 -1.1025,-9.3984 -0.9335,-9.8285 3.4708,-8.8353 2.5463,0.5741 16.2926,2.9739 30.5473,5.3327 72.2668,11.9584 119.9394,28.0068 169.0445,56.9067 56.6744,33.3547 103.9868,89.3158 125.6183,148.5814 8.2192,22.519 22.8658,72.6468 21.5969,73.9157 -1.844,1.844 -68.3913,2.1663 -90.5021,0.4384 z"
       id="path1779" />
    <path
       style="fill:#50fa7b;fill-opacity:1;stroke:none;stroke-width:0.78365;stroke-miterlimit:4;stroke-dasharray:none"
       d="m 2292.401,1404.3173 c -6.3473,-2.0956 -20.2488,-8.3962 -30.8924,-14.0013 l -19.3521,-10.1912 21.5621,-1.5748 c 11.8591,-0.8661 41.1558,-1.3326 65.1036,-1.0367 l 43.5415,0.5381 -12.9957,8.6789 c -29.4756,19.6845 -46.8185,24.2392 -66.967,17.587 z"
       id="path1781" />
    <ellipse
       style="fill:none;fill-opacity:1;stroke:none;stroke-width:26.8862;stroke-miterlimit:4;stroke-dasharray:none;stroke-opacity:1"
       id="path2267"
       cx="-1712.6821"
       cy="-385.41251"
       rx="1309.3873"
       ry="1309.387"
       transform="rotate(-157.82765)" />
  </g>
</svg>
